#!OML:ASF F:\VICON\USERDATA\INSTALL\rory3\rory3.ASF
:FULLY-SPECIFIED
:DEGREES
1018
root -2.96584 17.6516 0.676811 5.80853 -4.52054 3.13708
lowerback 6.51308 0.208657 -2.92749
upperback 1.01161 0.159224 3.05836
thorax -2.62488 0.117175 4.80858
lowerneck -18.7245 2.31301 -7.67905
upperneck 35.6963 6.63274 -0.728565
head 15.5508 1.61588 2.23939
rclavicle -8.74653e-015 -3.65764e-014
rhumerus -38.9408 -4.56145 -72.7254
rradius 66.8508
rwrist 8.55336
rhand -27.5286 12.4822
rfingers 7.12502
rthumb -0.930646 -17.4955
lclavicle -8.74653e-015 -3.65764e-014
lhumerus -46.8132 5.35705 83.894
lradius 91.6608
lwrist 16.6273
lhand -17.8616 12.0421
lfingers 7.12502
lthumb 8.40386 41.8549
rfemur -18.6449 0.416541 16.7446
rtibia 38.0258
rfoot -18.861 6.24571
rtoes 10.3029
lfemur -12.3101 -0.600742 -15.4925
ltibia 27.735
lfoot -14.0564 8.773
ltoes -22.1727
1019
root -2.93669 17.6529 0.679717 5.94649 -4.24526 3.09093
lowerback 6.55189 0.0962853 -3.01482
upperback 0.962719 0.0060759 3.15642
thorax -2.68109 0.044179 4.9755
lowerneck -18.6781 2.26505 -7.6016
upperneck 35.6869 6.53748 -0.765306
head 15.5443 1.58181 2.1924
rclavicle 1.0138e-014 2.06736e-014
rhumerus -38.964 -5.1428 -72.4194
rradius 67.1693
rwrist 8.68834
rhand -27.6579 12.2515
rfingers 7.12502
rthumb -1.05549 -17.7256
lclavicle 1.0138e-014 2.06736e-014
lhumerus -46.5573 5.01837 83.6291
lradius 91.6421
lwrist 16.6615
lhand -18.7302 11.7722
lfingers 7.12502
lthumb 7.56554 41.6169
rfemur -18.764 0.173554 16.7009
rtibia 38.05
rfoot -18.8424 6.17936
rtoes 9.97898
lfemur -12.453 -0.732875 -15.6286
ltibia 27.6041
lfoot -14.1526 9.08814
ltoes -22.151
1020
root -2.90475 17.6543 0.681422 6.10676 -3.90664 2.96238
lowerback 6.56268 -0.0491578 -2.95106
upperback 0.941949 -0.179729 3.27459
thorax -2.68829 -0.0481281 5.07988
lowerneck -18.6822 2.20568 -7.70747
upperneck 35.6348 6.44578 -0.673938
head 15.5148 1.54469 2.23138
rclavicle 1.2921e-014 2.70347e-014
rhumerus -38.9462 -5.64492 -72.1919
rradius 67.453
rwrist 8.39662
rhand -27.7297 12.4715
rfingers 7.12502
rthumb -1.12487 -17.5053
lclavicle 1.2921e-014 2.70347e-014
lhumerus -46.2386 4.75738 83.3789
lradius 91.5994
lwrist 16.6721
lhand -17.9042 12.2759
lfingers 7.12502
lthumb 8.36282 42.0904
rfemur -18.8729 0.00274945 16.75
rtibia 38.012
rfoot -18.8575 5.98696
rtoes 9.61492
lfemur -12.7074 -0.985885 -15.6545
ltibia 27.6288
lfoot -14.2737 9.30234
ltoes -22.2202
1021
root -2.8754 17.651 0.674986 6.17687 -3.57274 2.4615
lowerback 6.76422 -0.179127 -2.54452
upperback 0.9717 -0.320591 3.48007
thorax -2.75592 -0.120716 5.07845
lowerneck -18.7239 2.19173 -7.74292
upperneck 35.5504 6.40744 -0.604779
head 15.4792 1.53747 2.25869
rclavicle -1.31198e-014 9.54166e-015
rhumerus -38.9585 -6.00784 -72.1146
rradius 67.7716
rwrist 7.36657
rhand -28.3072 12.4719
rfingers 7.12502
rthumb -1.68258 -17.5012
lclavicle -1.31198e-014 9.54166e-015
lhumerus -45.871 4.53808 83.0802
lradius 91.5552
lwrist 16.6291
lhand -17.6933 12.3696
lfingers 7.12502
lthumb 8.56634 42.1759
rfemur -18.8837 0.0303822 17.2353
rtibia 37.9696
rfoot -18.9115 5.7249
rtoes 9.74637
lfemur -12.9054 -1.18422 -15.2281
ltibia 27.7107
lfoot -14.34 9.51649
ltoes -22.7575
1022
root -2.84402 17.6501 0.668464 6.27934 -3.22948 2.164
lowerback 6.98546 -0.268531 -2.35118
upperback 0.917206 -0.421265 3.6378
thorax -2.92572 -0.167644 5.14731
lowerneck -18.7039 2.12622 -7.79916
upperneck 35.5346 6.28068 -0.489591
head 15.4636 1.49482 2.2935
rclavicle -1.39149e-014 -1.11319e-014
rhumerus -39.0951 -6.39185 -71.9441
rradius 68.1076
rwrist 6.51726
rhand -28.9712 11.9416
rfingers 7.12502
rthumb -2.32389 -18.0255
lclavicle -1.39149e-014 -1.11319e-014
lhumerus -45.6248 4.21319 82.7702
lradius 91.5676
lwrist 16.7022
lhand -17.6977 12.2431
lfingers 7.12502
lthumb 8.56207 42.0495
rfemur -18.9556 -0.162969 17.4848
rtibia 37.9556
rfoot -18.8986 5.61151
rtoes 10.0457
lfemur -13.159 -1.33915 -15.039
ltibia 27.8149
lfoot -14.3567 9.70774
ltoes -22.9678
1023
root -2.80861 17.6506 0.668469 6.44545 -2.9748 2.2556
lowerback 6.84245 -0.366169 -2.40132
upperback 0.999002 -0.556559 3.6052
thorax -2.74629 -0.240076 5.15034
lowerneck -18.7746 2.04085 -7.90153
upperneck 35.4399 6.11332 -0.290774
head 15.4263 1.44343 2.36451
rclavicle -2.20651e-014 3.18055e-014
rhumerus -38.9955 -6.88065 -71.8373
rradius 68.3932
rwrist 6.25302
rhand -28.9274 12.1893
rfingers 7.12502
rthumb -2.28157 -17.7783
lclavicle -2.20651e-014 3.18055e-014
lhumerus -45.2168 3.96355 82.3503
lradius 91.6214
lwrist 16.8
lhand -17.5942 12.1151
lfingers 7.12502
lthumb 8.66199 41.9174
rfemur -19.1295 -0.496858 17.2633
rtibia 37.9784
rfoot -18.8082 5.62611
rtoes 9.80593
lfemur -13.4483 -1.59527 -15.3091
ltibia 27.9191
lfoot -14.4466 9.92264
ltoes -22.628
1024
root -2.7736 17.6523 0.664855 6.49754 -2.63426 2.26326
lowerback 6.95085 -0.492249 -2.43031
upperback 1.06751 -0.727051 3.6574
thorax -2.71654 -0.326564 5.23829
lowerneck -18.8789 1.98496 -8.00677
upperneck 35.394 6.03979 -0.196695
head 15.4235 1.41244 2.41052
rclavicle 8.34896e-015 -3.65764e-014
rhumerus -38.9755 -7.26038 -71.6269
rradius 68.723
rwrist 6.23874
rhand -29.0405 12.3731
rfingers 7.12502
rthumb -2.3908 -17.5933
lclavicle 8.34896e-015 -3.65764e-014
lhumerus -44.9113 3.84372 81.9668
lradius 91.7183
lwrist 16.8172
lhand -17.5916 12.1136
lfingers 7.12502
lthumb 8.66449 41.9158
rfemur -19.1966 -0.771884 17.1406
rtibia 38.037
rfoot -18.7997 5.55434
rtoes 9.54006
lfemur -13.6024 -1.84328 -15.4433
ltibia 27.9737
lfoot -14.6044 9.90515
ltoes -21.7308
1025
root -2.7396 17.6517 0.65578 6.4783 -2.17239 2.25035
lowerback 7.20623 -0.611033 -2.42008
upperback 1.13104 -0.88561 3.71031
thorax -2.77541 -0.405376 5.30728
lowerneck -18.9123 1.91598 -8.17268
upperneck 35.3083 5.93559 -0.040651
head 15.3814 1.37355 2.48459
rclavicle -1.21259e-014 -2.54444e-014
rhumerus -39.2078 -7.53361 -71.4223
rradius 69.225
rwrist 6.11976
rhand -29.3565 12.1277
rfingers 7.12502
rthumb -2.69604 -17.835
lclavicle -1.21259e-014 -2.54444e-014
lhumerus -44.5457 3.64752 81.6054
lradius 91.7698
lwrist 16.7987
lhand -18.0866 12.2322
lfingers 7.12502
lthumb 8.18678 42.0536
rfemur -19.1897 -1.03584 17.0734
rtibia 38.1195
rfoot -18.963 5.39299
rtoes 8.95786
lfemur -13.7218 -2.05273 -15.5329
ltibia 28.004
lfoot -14.6531 9.81914
ltoes -21.5432
1026
root -2.70326 17.649 0.649271 6.57032 -1.88536 2.22138
lowerback 7.32228 -0.661191 -2.33355
upperback 1.17943 -0.946863 3.71689
thorax -2.78463 -0.437318 5.2723
lowerneck -18.9984 1.82721 -8.28729
upperneck 35.2335 5.78576 0.128885
head 15.3601 1.32291 2.54935
rclavicle 2.64384e-014 -1.27222e-014
rhumerus -39.692 -7.70833 -71.2575
rradius 69.9749
rwrist 5.79829
rhand -29.0324 12.3446
rfingers 7.12502
rthumb -2.38296 -17.6219
lclavicle 2.64384e-014 -1.27222e-014
lhumerus -44.1411 3.3835 81.2083
lradius 91.7907
lwrist 16.9134
lhand -18.5788 12.3143
lfingers 7.12502
lthumb 7.71173 42.1537
rfemur -19.2924 -1.20695 16.9924
rtibia 38.1983
rfoot -19.0391 5.38706
rtoes 9.34773
lfemur -13.9597 -2.08194 -15.6325
ltibia 28.0547
lfoot -14.6198 9.81331
ltoes -22.2695
1027
root -2.66555 17.6487 0.645394 6.78956 -1.83701 2.29095
lowerback 7.34278 -0.647056 -2.37734
upperback 1.15598 -0.932159 3.68195
thorax -2.82185 -0.428395 5.26003
lowerneck -19.058 1.74843 -8.25998
upperneck 35.2112 5.65744 0.144433
head 15.3702 1.27496 2.52983
rclavicle 2.98177e-015 4.77083e-014
rhumerus -40.0949 -7.89401 -71.0921
rradius 70.5789
rwrist 5.46762
rhand -28.6941 12.7917
rfingers 7.12502
rthumb -2.05629 -17.1782
lclavicle 2.98177e-015 4.77083e-014
lhumerus -43.8203 3.23497 80.7644
lradius 91.7935
lwrist 17.0943
lhand -18.5578 12.1931
lfingers 7.12502
lthumb 7.73202 42.0317
rfemur -19.6067 -1.39098 16.7814
rtibia 38.2998
rfoot -18.8566 5.39835
rtoes 9.8704
lfemur -14.2871 -1.91593 -15.8568
ltibia 28.1077
lfoot -14.5494 9.68852
ltoes -22.595
1028
root -2.63183 17.652 0.640313 6.98076 -1.83047 2.40856
lowerback 7.34917 -0.62706 -2.57185
upperback 1.18436 -0.921604 3.67384
thorax -2.79405 -0.422454 5.36151
lowerneck -19.1898 1.68832 -8.30167
upperneck 35.1908 5.5972 0.145585
head 15.3939 1.24298 2.52969
rclavicle -5.96354e-015 -4.77083e-014
rhumerus -40.1595 -8.07069 -70.9248
rradius 70.8991
rwrist 5.30597
rhand -28.9318 12.7998
rfingers 7.12502
rthumb -2.28588 -17.1677
lclavicle -5.96354e-015 -4.77083e-014
lhumerus -43.5558 3.23909 80.3308
lradius 91.8563
lwrist 17.1706
lhand -18.7956 11.8644
lfingers 7.12502
lthumb 7.50241 41.7114
rfemur -19.9305 -1.58792 16.5389
rtibia 38.4409
rfoot -18.6456 5.22768
rtoes 10.0561
lfemur -14.5452 -1.60606 -16.1154
ltibia 28.1296
lfoot -14.5116 9.35794
ltoes -22.5
1029
root -2.59843 17.6571 0.632796 7.26981 -1.75227 2.64945
lowerback 7.25042 -0.622372 -2.84432
upperback 1.18501 -0.937962 3.59583
thorax -2.73314 -0.429798 5.4343
lowerneck -19.2846 1.62134 -8.31297
upperneck 35.1726 5.50026 0.175583
head 15.4108 1.2045 2.52914
rclavicle 1.98785e-015 -5.88403e-014
rhumerus -40.2125 -8.30255 -70.7977
rradius 71.1137
rwrist 5.37513
rhand -29.1934 12.8054
rfingers 7.12502
rthumb -2.53849 -17.1592
lclavicle 1.98785e-015 -5.88403e-014
lhumerus -43.3104 3.16243 79.8409
lradius 91.9295
lwrist 17.2148
lhand -19.0409 11.5833
lfingers 7.12502
lthumb 7.26569 41.4386
rfemur -20.3498 -1.88709 16.1656
rtibia 38.6207
rfoot -18.4986 5.26297
rtoes 10.1778
lfemur -14.9016 -1.42697 -16.4674
ltibia 28.1186
lfoot -14.5237 8.98127
ltoes -22.1961
